<svg id="Layer_2" data-name="Layer 2" xmlns="http://www.w3.org/2000/svg" xmlns:xlink="http://www.w3.org/1999/xlink" width="85px" height="80px">
  <defs>
    <style>
      .cls-1 {
        fill:#FFFFFF;
      }

      .cls-2 {
        clip-path: url(#clippath);
      }

      .cls-3, .cls-4 {
        fill:#FFFFFF;
      }

      .cls-4 {
        fill-rule: evenodd;
      }
    </style>
    <clipPath id="clippath">
      <rect class="cls-1" x="22.68" width="38.69" height="29.76"></rect>
    </clipPath>
  </defs>
  <g id="Layer_1-2" data-name="Layer 1">
    <g class="cls-2">
      <path class="cls-4" d="m28.95,11.96c1.19-3.36,4.38-5.8,8.07-5.83,4.66-.04,8.79-2.31,11.42-5.83h-11.34c-4.68,0-8.87,2.29-11.51,5.83-1.27,1.7-2.17,3.68-2.61,5.83-1.79,8.86,4.84,17.39,13.96,17.49h11.49c-2.6-3.5-6.72-5.78-11.34-5.83-3.72-.03-6.93-2.41-8.14-5.84h7.99c11.04,0,20.79-7.11,24.44-17.49h-6.22c-3.29,6.96-10.28,11.66-18.16,11.66h-8.04Zm22.69,4.65c-2.04,1.24-4.25,2.22-6.58,2.92,4.41,1.98,8.01,5.52,10.08,9.93h6.23c-1.83-5.21-5.26-9.71-9.73-12.85h0Z"></path>
    </g>
    <path class="cls-3" d="m14.15,62.85v1.83H0v-20h13.71v1.83H2.13v7.1h10.33v1.81H2.13v7.42h12.02Z"></path>
    <path class="cls-3" d="m25.71,55.28l-4.08,4.15v5.25h-2.13v-20h2.13v12.08l11.73-12.08h2.44l-8.67,9.06,9.27,10.94h-2.52l-8.17-9.4Z"></path>
    <path class="cls-3" d="m48.95,64.85c-1.99,0-3.79-.44-5.4-1.31-1.6-.89-2.85-2.1-3.77-3.65-.91-1.54-1.35-3.28-1.35-5.21s.45-3.65,1.35-5.19c.92-1.54,2.17-2.76,3.77-3.65,1.61-.89,3.41-1.33,5.4-1.33s3.75.44,5.33,1.31c1.59.88,2.85,2.09,3.77,3.65.92,1.56,1.38,3.29,1.38,5.21s-.46,3.68-1.38,5.23c-.92,1.54-2.18,2.75-3.77,3.63-1.58.88-3.36,1.31-5.33,1.31Zm0-1.88c1.58,0,3.01-.35,4.27-1.06,1.28-.72,2.28-1.71,3-2.98.73-1.26,1.1-2.68,1.1-4.25s-.37-2.96-1.1-4.23c-.72-1.28-1.72-2.27-3-2.98-1.27-.71-2.69-1.06-4.27-1.06s-3.02.35-4.31,1.06c-1.28.71-2.29,1.7-3.02,2.98-.74,1.27-1.1,2.68-1.1,4.23s.36,2.99,1.1,4.25c.73,1.27,1.74,2.26,3.02,2.98,1.29.71,2.73,1.06,4.31,1.06Z"></path>
    <path class="cls-3" d="m85.32,44.68v20h-2.02v-16l-7.85,13.46h-1l-7.85-13.38v15.92h-2.04v-20h1.75l8.69,14.83,8.58-14.83h1.75Z"></path>
  </g>
</svg>