<?xml version="1.0" encoding="UTF-8"?>
<svg xmlns="http://www.w3.org/2000/svg" xmlns:xlink="http://www.w3.org/1999/xlink" width="124px" height="40px" viewBox="0 0 123 40" version="1.1">
<g id="surface1">
<path style=" stroke:none;fill-rule:nonzero;fill:#FFFFFF;fill-opacity:1;" d="M 21.589844 16.332031 C 21.988281 16.695312 22.234375 17.15625 22.484375 17.628906 C 22.527344 17.566406 22.574219 17.503906 22.617188 17.4375 C 23.414062 16.359375 24.324219 15.875 25.621094 15.644531 C 26.804688 15.488281 27.925781 15.710938 28.925781 16.367188 C 29.855469 17.097656 30.277344 18.121094 30.460938 19.273438 C 30.511719 19.953125 30.496094 20.636719 30.488281 21.316406 C 30.488281 21.511719 30.488281 21.707031 30.488281 21.902344 C 30.488281 22.414062 30.484375 22.925781 30.480469 23.4375 C 30.480469 23.964844 30.476562 24.488281 30.476562 25.011719 C 30.472656 26.035156 30.46875 27.0625 30.460938 28.085938 C 29.480469 28.085938 28.496094 28.085938 27.484375 28.085938 C 27.480469 27.726562 27.480469 27.726562 27.480469 27.355469 C 27.472656 26.554688 27.46875 25.753906 27.460938 24.957031 C 27.457031 24.46875 27.453125 23.984375 27.449219 23.5 C 27.445312 23.03125 27.441406 22.5625 27.4375 22.09375 C 27.4375 21.917969 27.4375 21.738281 27.433594 21.5625 C 27.453125 20.0625 27.453125 20.0625 26.914062 18.691406 C 26.472656 18.261719 25.964844 18.203125 25.367188 18.207031 C 24.851562 18.308594 24.378906 18.488281 24.023438 18.886719 C 23.492188 19.757812 23.582031 20.765625 23.582031 21.75 C 23.578125 21.933594 23.578125 22.117188 23.574219 22.300781 C 23.570312 22.777344 23.570312 23.257812 23.566406 23.738281 C 23.566406 24.226562 23.5625 24.71875 23.558594 25.207031 C 23.550781 26.167969 23.546875 27.128906 23.542969 28.085938 C 22.527344 28.085938 21.511719 28.085938 20.46875 28.085938 C 20.46875 27.832031 20.464844 27.574219 20.464844 27.308594 C 20.460938 26.457031 20.457031 25.605469 20.449219 24.753906 C 20.445312 24.238281 20.445312 23.722656 20.441406 23.207031 C 20.441406 22.710938 20.4375 22.210938 20.433594 21.714844 C 20.429688 21.523438 20.429688 21.335938 20.429688 21.144531 C 20.429688 20.878906 20.425781 20.613281 20.425781 20.347656 C 20.425781 20.269531 20.425781 20.191406 20.425781 20.109375 C 20.414062 19.566406 20.289062 19.148438 19.988281 18.691406 C 19.550781 18.292969 19.121094 18.203125 18.546875 18.207031 C 17.832031 18.273438 17.21875 18.671875 16.71875 19.175781 C 16.699219 19.460938 16.691406 19.734375 16.691406 20.015625 C 16.6875 20.148438 16.6875 20.148438 16.6875 20.28125 C 16.683594 20.570312 16.683594 20.855469 16.679688 21.144531 C 16.679688 21.34375 16.675781 21.542969 16.675781 21.742188 C 16.671875 22.269531 16.667969 22.792969 16.664062 23.320312 C 16.660156 23.855469 16.652344 24.394531 16.648438 24.929688 C 16.640625 25.980469 16.632812 27.035156 16.625 28.085938 C 15.609375 28.085938 14.59375 28.085938 13.550781 28.085938 C 13.546875 26.496094 13.546875 24.910156 13.542969 23.320312 C 13.542969 22.582031 13.542969 21.84375 13.542969 21.105469 C 13.539062 20.460938 13.539062 19.820312 13.539062 19.175781 C 13.539062 18.835938 13.539062 18.496094 13.539062 18.152344 C 13.539062 17.773438 13.539062 17.394531 13.539062 17.015625 C 13.539062 16.902344 13.539062 16.789062 13.539062 16.671875 C 13.539062 16.515625 13.539062 16.515625 13.539062 16.359375 C 13.539062 16.269531 13.539062 16.179688 13.539062 16.085938 C 13.550781 15.882812 13.550781 15.882812 13.644531 15.785156 C 13.957031 15.761719 14.269531 15.765625 14.582031 15.761719 C 14.667969 15.761719 14.757812 15.757812 14.847656 15.757812 C 15.675781 15.75 15.675781 15.75 16.046875 16.078125 C 16.207031 16.394531 16.320312 16.707031 16.433594 17.046875 C 16.484375 16.996094 16.539062 16.941406 16.59375 16.890625 C 17.992188 15.585938 19.972656 15.074219 21.589844 16.332031 Z M 21.589844 16.332031 "/>
<path style=" stroke:none;fill-rule:nonzero;fill:#FFFFFF;fill-opacity:1;" d="M 65.152344 13.460938 C 65.523438 13.515625 65.691406 13.683594 65.953125 13.949219 C 66.027344 14.027344 66.105469 14.105469 66.183594 14.1875 C 66.265625 14.269531 66.34375 14.351562 66.425781 14.4375 C 66.546875 14.5625 66.546875 14.5625 66.667969 14.6875 C 66.867188 14.890625 67.066406 15.097656 67.265625 15.300781 C 67.117188 15.613281 66.945312 15.890625 66.753906 16.175781 C 65.886719 17.542969 65.496094 19.011719 65.832031 20.617188 C 66.210938 22.234375 67.117188 23.597656 68.515625 24.503906 C 68.859375 24.691406 69.207031 24.847656 69.570312 24.988281 C 69.648438 25.019531 69.726562 25.050781 69.804688 25.082031 C 71.226562 25.5625 72.835938 25.359375 74.179688 24.765625 C 75.625 24.035156 76.59375 22.8125 77.164062 21.308594 C 77.605469 19.851562 77.496094 18.175781 76.808594 16.824219 C 76.542969 16.351562 76.257812 15.917969 75.914062 15.496094 C 76.136719 14.988281 76.527344 14.644531 76.910156 14.253906 C 77.023438 14.140625 77.023438 14.140625 77.132812 14.019531 C 77.207031 13.949219 77.277344 13.875 77.351562 13.800781 C 77.449219 13.699219 77.449219 13.699219 77.550781 13.597656 C 77.738281 13.460938 77.738281 13.460938 77.941406 13.472656 C 78.246094 13.617188 78.402344 13.886719 78.585938 14.160156 C 78.628906 14.21875 78.671875 14.28125 78.714844 14.34375 C 80.078125 16.363281 80.636719 18.773438 80.1875 21.191406 C 79.824219 22.886719 79.0625 24.261719 77.933594 25.570312 C 77.769531 25.761719 77.613281 25.957031 77.453125 26.148438 C 77.542969 26.277344 77.542969 26.277344 77.632812 26.40625 C 78.105469 27.066406 78.566406 27.730469 79.007812 28.414062 C 79.179688 28.675781 79.179688 28.675781 79.394531 28.925781 C 79.566406 29.152344 79.566406 29.152344 79.566406 29.441406 C 78.664062 29.808594 77.710938 29.980469 76.777344 29.636719 C 75.957031 29.238281 75.425781 28.5625 74.953125 27.796875 C 74.488281 27.859375 74.054688 27.980469 73.605469 28.113281 C 71.417969 28.648438 69.082031 28.226562 67.140625 27.132812 C 65.066406 25.804688 63.585938 23.824219 63.039062 21.40625 C 62.582031 19.085938 62.9375 16.730469 64.191406 14.722656 C 64.402344 14.421875 64.628906 14.132812 64.863281 13.851562 C 64.960938 13.722656 65.054688 13.59375 65.152344 13.460938 Z M 65.152344 13.460938 "/>
<path style=" stroke:none;fill-rule:nonzero;fill:#FFFFFF;fill-opacity:1;" d="M 11.007812 12.09375 C 11.195312 12.25 11.195312 12.25 11.433594 12.492188 C 11.375 12.953125 11.1875 13.3125 10.972656 13.714844 C 10.921875 13.8125 10.921875 13.8125 10.871094 13.914062 C 10.6875 14.257812 10.535156 14.535156 10.1875 14.722656 C 9.570312 14.730469 9.21875 14.519531 8.707031 14.195312 C 7.703125 13.589844 6.625 13.503906 5.484375 13.707031 C 4.90625 13.875 4.585938 14.1875 4.246094 14.683594 C 4.054688 15.234375 4.03125 15.808594 4.234375 16.355469 C 4.710938 16.882812 5.261719 17.140625 5.914062 17.367188 C 6.03125 17.410156 6.03125 17.410156 6.152344 17.453125 C 6.496094 17.578125 6.84375 17.699219 7.191406 17.820312 C 10.535156 18.988281 10.535156 18.988281 11.4375 20.695312 C 11.707031 21.347656 11.757812 21.9375 11.753906 22.640625 C 11.753906 22.734375 11.753906 22.828125 11.75 22.925781 C 11.742188 23.589844 11.695312 24.179688 11.433594 24.792969 C 11.398438 24.890625 11.359375 24.984375 11.316406 25.082031 C 10.722656 26.402344 9.738281 27.332031 8.40625 27.875 C 6.269531 28.636719 4.039062 28.367188 2.007812 27.402344 C 1.589844 27.191406 1.226562 26.925781 0.863281 26.632812 C 0.804688 26.589844 0.742188 26.546875 0.679688 26.5 C 0.300781 26.21875 0.300781 26.21875 0.25 25.9375 C 0.304688 25.5625 0.484375 25.292969 0.691406 24.980469 C 0.746094 24.894531 0.746094 24.894531 0.804688 24.800781 C 1.039062 24.441406 1.261719 24.148438 1.632812 23.921875 C 2.152344 23.828125 2.480469 24.050781 2.902344 24.328125 C 4.179688 25.136719 5.347656 25.582031 6.882812 25.316406 C 7.460938 25.164062 7.984375 24.894531 8.308594 24.378906 C 8.601562 23.703125 8.648438 23.109375 8.457031 22.402344 C 7.851562 21.394531 6.605469 21.089844 5.550781 20.785156 C 3.9375 20.304688 2.34375 19.703125 1.410156 18.199219 C 0.796875 17.023438 0.730469 15.636719 1.050781 14.363281 C 1.464844 13.0625 2.269531 12.011719 3.480469 11.359375 C 5.90625 10.238281 8.828125 10.503906 11.007812 12.09375 Z M 11.007812 12.09375 "/>
<path style=" stroke:none;fill-rule:nonzero;fill:#FFFFFF;fill-opacity:1;" d="M 111.660156 10.460938 C 112.644531 10.460938 113.628906 10.460938 114.640625 10.460938 C 114.640625 13.753906 114.640625 17.042969 114.640625 20.4375 C 115.578125 20.28125 115.578125 20.28125 116.125 19.683594 C 116.167969 19.628906 116.210938 19.574219 116.253906 19.515625 C 116.34375 19.398438 116.433594 19.28125 116.523438 19.164062 C 116.699219 18.929688 116.875 18.703125 117.054688 18.472656 C 117.140625 18.363281 117.230469 18.25 117.316406 18.136719 C 117.632812 17.730469 117.953125 17.332031 118.285156 16.9375 C 118.328125 16.886719 118.371094 16.832031 118.417969 16.78125 C 119.113281 15.957031 119.113281 15.957031 119.636719 15.785156 C 119.957031 15.765625 119.957031 15.765625 120.3125 15.769531 C 120.378906 15.769531 120.441406 15.769531 120.507812 15.769531 C 120.707031 15.769531 120.90625 15.773438 121.109375 15.773438 C 121.246094 15.777344 121.382812 15.777344 121.519531 15.777344 C 121.851562 15.78125 122.1875 15.78125 122.519531 15.785156 C 122.453125 16.1875 122.367188 16.375 122.085938 16.671875 C 121.796875 16.988281 121.515625 17.308594 121.246094 17.644531 C 120.859375 18.125 120.464844 18.59375 120.066406 19.058594 C 119.761719 19.417969 119.460938 19.777344 119.167969 20.144531 C 118.863281 20.523438 118.546875 20.875 118.195312 21.210938 C 118.242188 21.269531 118.285156 21.328125 118.332031 21.390625 C 119.035156 22.316406 119.679688 23.28125 120.328125 24.246094 C 120.523438 24.539062 120.722656 24.828125 120.921875 25.117188 C 121.132812 25.429688 121.347656 25.742188 121.558594 26.054688 C 121.609375 26.128906 121.664062 26.207031 121.714844 26.285156 C 121.878906 26.523438 122.039062 26.761719 122.203125 27.003906 C 122.277344 27.117188 122.277344 27.117188 122.355469 27.230469 C 122.402344 27.300781 122.449219 27.371094 122.496094 27.441406 C 122.539062 27.503906 122.578125 27.566406 122.621094 27.628906 C 122.710938 27.796875 122.710938 27.796875 122.710938 28.085938 C 122.28125 28.09375 121.851562 28.101562 121.425781 28.101562 C 121.277344 28.105469 121.132812 28.105469 120.988281 28.109375 C 120.777344 28.113281 120.566406 28.113281 120.355469 28.117188 C 120.167969 28.117188 120.167969 28.117188 119.972656 28.121094 C 119.597656 28.082031 119.445312 28.039062 119.15625 27.796875 C 118.949219 27.539062 118.773438 27.265625 118.59375 26.984375 C 118.539062 26.90625 118.488281 26.824219 118.433594 26.742188 C 118.265625 26.484375 118.097656 26.226562 117.929688 25.96875 C 117.820312 25.796875 117.710938 25.628906 117.597656 25.457031 C 117.542969 25.375 117.488281 25.292969 117.433594 25.207031 C 117.328125 25.042969 117.21875 24.875 117.109375 24.710938 C 116.875 24.355469 116.640625 23.996094 116.425781 23.625 C 116.390625 23.566406 116.355469 23.507812 116.316406 23.445312 C 116.226562 23.292969 116.136719 23.140625 116.050781 22.984375 C 115.703125 22.640625 115.703125 22.640625 114.640625 22.566406 C 114.640625 24.386719 114.640625 26.210938 114.640625 28.085938 C 114.148438 28.089844 113.660156 28.089844 113.15625 28.09375 C 113 28.09375 112.847656 28.09375 112.6875 28.097656 C 112.566406 28.097656 112.445312 28.097656 112.320312 28.097656 C 112.199219 28.097656 112.074219 28.097656 111.945312 28.097656 C 111.660156 28.085938 111.660156 28.085938 111.566406 27.992188 C 111.554688 27.765625 111.550781 27.542969 111.550781 27.316406 C 111.550781 27.246094 111.550781 27.175781 111.550781 27.101562 C 111.550781 26.859375 111.550781 26.621094 111.550781 26.378906 C 111.550781 26.207031 111.550781 26.039062 111.550781 25.867188 C 111.550781 25.398438 111.550781 24.929688 111.550781 24.464844 C 111.550781 23.976562 111.550781 23.488281 111.550781 23 C 111.550781 22.179688 111.550781 21.359375 111.550781 20.539062 C 111.554688 19.589844 111.550781 18.640625 111.550781 17.691406 C 111.550781 16.878906 111.550781 16.066406 111.550781 15.253906 C 111.550781 14.765625 111.550781 14.277344 111.550781 13.792969 C 111.550781 13.335938 111.550781 12.878906 111.550781 12.421875 C 111.550781 12.253906 111.550781 12.085938 111.550781 11.917969 C 111.550781 11.6875 111.550781 11.457031 111.550781 11.230469 C 111.550781 11.164062 111.550781 11.09375 111.550781 11.023438 C 111.554688 10.566406 111.554688 10.566406 111.660156 10.460938 Z M 111.660156 10.460938 "/>
<path style=" stroke:none;fill-rule:nonzero;fill:#FFFFFF;fill-opacity:1;" d="M 81.96875 15.785156 C 82.949219 15.785156 83.933594 15.785156 84.945312 15.785156 C 84.949219 16.027344 84.949219 16.265625 84.953125 16.511719 C 84.960938 17.300781 84.964844 18.09375 84.972656 18.886719 C 84.980469 19.367188 84.984375 19.84375 84.988281 20.324219 C 84.992188 20.789062 84.996094 21.253906 85 21.714844 C 85.003906 21.890625 85.003906 22.070312 85.003906 22.246094 C 85.007812 22.492188 85.007812 22.742188 85.011719 22.988281 C 85.011719 23.0625 85.011719 23.132812 85.011719 23.207031 C 85.023438 23.976562 85.128906 24.667969 85.621094 25.277344 C 86.128906 25.726562 86.644531 25.699219 87.292969 25.691406 C 88.097656 25.628906 88.800781 25.171875 89.367188 24.601562 C 89.378906 24.328125 89.382812 24.0625 89.386719 23.789062 C 89.386719 23.707031 89.386719 23.621094 89.386719 23.535156 C 89.390625 23.347656 89.390625 23.164062 89.390625 22.980469 C 89.394531 22.6875 89.398438 22.394531 89.398438 22.101562 C 89.40625 21.480469 89.410156 20.863281 89.414062 20.242188 C 89.421875 19.523438 89.425781 18.804688 89.433594 18.085938 C 89.4375 17.796875 89.4375 17.511719 89.441406 17.222656 C 89.441406 17.046875 89.445312 16.871094 89.445312 16.695312 C 89.445312 16.613281 89.445312 16.53125 89.445312 16.449219 C 89.453125 15.894531 89.453125 15.894531 89.558594 15.785156 C 89.769531 15.777344 89.984375 15.773438 90.195312 15.773438 C 90.257812 15.773438 90.324219 15.773438 90.390625 15.773438 C 90.523438 15.773438 90.660156 15.773438 90.792969 15.773438 C 91 15.773438 91.207031 15.773438 91.414062 15.773438 C 91.542969 15.773438 91.675781 15.773438 91.804688 15.773438 C 91.984375 15.773438 91.984375 15.773438 92.167969 15.773438 C 92.441406 15.785156 92.441406 15.785156 92.539062 15.882812 C 92.546875 16.042969 92.550781 16.199219 92.550781 16.359375 C 92.550781 16.511719 92.550781 16.511719 92.550781 16.671875 C 92.550781 16.839844 92.550781 16.839844 92.550781 17.015625 C 92.550781 17.132812 92.550781 17.253906 92.550781 17.375 C 92.550781 17.703125 92.546875 18.03125 92.546875 18.359375 C 92.546875 18.699219 92.546875 19.042969 92.546875 19.382812 C 92.546875 20.03125 92.546875 20.679688 92.546875 21.324219 C 92.542969 22.0625 92.542969 22.800781 92.542969 23.539062 C 92.542969 25.054688 92.539062 26.570312 92.539062 28.085938 C 92.179688 28.101562 91.820312 28.109375 91.464844 28.117188 C 91.363281 28.121094 91.261719 28.125 91.15625 28.128906 C 90.402344 28.140625 90.402344 28.140625 90.023438 27.855469 C 89.78125 27.507812 89.730469 27.242188 89.65625 26.828125 C 89.585938 26.886719 89.515625 26.941406 89.445312 27 C 88.105469 28.0625 86.789062 28.445312 85.09375 28.253906 C 84.34375 28.089844 83.621094 27.707031 83.121094 27.117188 C 83.039062 27.027344 82.957031 26.9375 82.875 26.847656 C 81.867188 25.585938 81.925781 24.003906 81.941406 22.472656 C 81.941406 22.28125 81.941406 22.085938 81.941406 21.894531 C 81.941406 21.386719 81.945312 20.882812 81.949219 20.375 C 81.949219 19.859375 81.953125 19.339844 81.953125 18.824219 C 81.957031 17.8125 81.960938 16.800781 81.96875 15.785156 Z M 81.96875 15.785156 "/>
<path style=" stroke:none;fill-rule:nonzero;fill:#FFFFFF;fill-opacity:1;" d="M 40.550781 16.464844 C 41.546875 17.253906 42.015625 18.402344 42.164062 19.640625 C 42.199219 19.992188 42.199219 20.34375 42.195312 20.699219 C 42.195312 20.777344 42.195312 20.859375 42.195312 20.941406 C 42.195312 21.207031 42.195312 21.46875 42.195312 21.730469 C 42.195312 21.914062 42.195312 22.097656 42.195312 22.28125 C 42.195312 22.761719 42.191406 23.242188 42.191406 23.722656 C 42.191406 24.214844 42.191406 24.707031 42.191406 25.199219 C 42.1875 26.160156 42.1875 27.125 42.183594 28.085938 C 41.875 28.097656 41.566406 28.105469 41.253906 28.113281 C 41.167969 28.113281 41.078125 28.117188 40.988281 28.121094 C 40.570312 28.128906 40.332031 28.128906 39.96875 27.90625 C 39.769531 27.683594 39.6875 27.527344 39.609375 27.238281 C 39.585938 27.164062 39.5625 27.085938 39.539062 27.003906 C 39.527344 26.945312 39.511719 26.886719 39.496094 26.828125 C 39.441406 26.863281 39.386719 26.902344 39.332031 26.9375 C 39.097656 27.097656 38.863281 27.253906 38.628906 27.410156 C 38.5625 27.453125 38.5 27.5 38.429688 27.546875 C 37.257812 28.328125 35.777344 28.464844 34.40625 28.21875 C 33.632812 28.003906 32.90625 27.519531 32.480469 26.828125 C 32.019531 25.964844 31.90625 24.882812 32.171875 23.9375 C 32.261719 23.726562 32.359375 23.535156 32.480469 23.339844 C 32.542969 23.222656 32.542969 23.222656 32.605469 23.101562 C 33.445312 21.832031 35.316406 21.398438 36.707031 21.113281 C 37.285156 21.023438 37.859375 21.003906 38.445312 21.011719 C 38.554688 21.011719 38.554688 21.011719 38.667969 21.011719 C 38.847656 21.011719 39.027344 21.015625 39.207031 21.015625 C 39.179688 20.753906 39.15625 20.492188 39.128906 20.230469 C 39.117188 20.121094 39.117188 20.121094 39.109375 20.007812 C 39.046875 19.433594 38.925781 18.992188 38.507812 18.570312 C 37.804688 18.121094 37.128906 18.167969 36.324219 18.304688 C 35.929688 18.429688 35.582031 18.621094 35.222656 18.824219 C 34.695312 19.113281 34.238281 19.324219 33.632812 19.175781 C 33.191406 18.863281 32.855469 18.335938 32.671875 17.820312 C 32.671875 17.578125 32.671875 17.578125 32.769531 17.335938 C 34.820312 15.492188 38.203125 14.875 40.550781 16.464844 Z M 35.109375 24.097656 C 34.933594 24.507812 34.929688 24.738281 34.976562 25.179688 C 35.136719 25.539062 35.320312 25.753906 35.652344 25.957031 C 36.429688 26.199219 37.320312 26.105469 38.054688 25.761719 C 38.453125 25.503906 38.867188 25.230469 39.207031 24.890625 C 39.214844 24.753906 39.214844 24.617188 39.214844 24.480469 C 39.214844 24.394531 39.214844 24.3125 39.214844 24.226562 C 39.214844 24.140625 39.214844 24.054688 39.210938 23.964844 C 39.210938 23.878906 39.210938 23.789062 39.210938 23.699219 C 39.210938 23.484375 39.207031 23.265625 39.207031 23.050781 C 37.8125 23 36.132812 22.996094 35.109375 24.097656 Z M 35.109375 24.097656 "/>
<path style=" stroke:none;fill-rule:nonzero;fill:#FFFFFF;fill-opacity:1;" d="M 58.136719 12.105469 C 58.136719 13.351562 58.136719 14.597656 58.136719 15.882812 C 59.144531 15.878906 59.144531 15.878906 60.152344 15.875 C 60.277344 15.875 60.402344 15.875 60.53125 15.875 C 60.59375 15.875 60.660156 15.875 60.730469 15.871094 C 60.890625 15.871094 61.050781 15.878906 61.210938 15.882812 C 61.308594 15.980469 61.308594 15.980469 61.320312 16.195312 C 61.316406 16.335938 61.316406 16.335938 61.316406 16.476562 C 61.316406 16.566406 61.316406 16.65625 61.316406 16.75 C 61.316406 16.867188 61.316406 16.980469 61.3125 17.101562 C 61.3125 17.464844 61.308594 17.832031 61.308594 18.207031 C 60.261719 18.207031 59.214844 18.207031 58.136719 18.207031 C 58.144531 19.402344 58.144531 19.402344 58.15625 20.59375 C 58.160156 21.082031 58.167969 21.566406 58.171875 22.054688 C 58.171875 22.449219 58.175781 22.839844 58.179688 23.230469 C 58.183594 23.382812 58.183594 23.53125 58.183594 23.679688 C 58.183594 23.890625 58.1875 24.101562 58.191406 24.3125 C 58.191406 24.488281 58.191406 24.488281 58.195312 24.671875 C 58.234375 25.015625 58.316406 25.199219 58.519531 25.472656 C 58.800781 25.640625 58.960938 25.667969 59.285156 25.648438 C 59.585938 25.578125 59.585938 25.578125 59.878906 25.410156 C 60.15625 25.277344 60.15625 25.277344 60.34375 25.292969 C 60.914062 25.53125 61.339844 26.378906 61.597656 26.925781 C 61.574219 27.171875 61.539062 27.277344 61.355469 27.441406 C 60.105469 28.195312 58.816406 28.460938 57.371094 28.234375 C 56.503906 28.007812 55.953125 27.515625 55.46875 26.773438 C 55.195312 26.222656 55.128906 25.6875 55.136719 25.082031 C 55.136719 25.003906 55.136719 24.929688 55.136719 24.855469 C 55.136719 24.609375 55.136719 24.363281 55.140625 24.121094 C 55.140625 23.949219 55.140625 23.777344 55.140625 23.609375 C 55.140625 23.160156 55.140625 22.714844 55.144531 22.265625 C 55.148438 21.808594 55.148438 21.351562 55.148438 20.894531 C 55.152344 20 55.152344 19.105469 55.15625 18.207031 C 55.050781 18.210938 54.941406 18.21875 54.832031 18.222656 C 54.691406 18.226562 54.546875 18.230469 54.40625 18.234375 C 54.335938 18.234375 54.265625 18.238281 54.191406 18.242188 C 53.667969 18.25 53.667969 18.25 53.429688 18.035156 C 53.28125 17.707031 53.300781 17.378906 53.3125 17.023438 C 53.316406 16.949219 53.316406 16.878906 53.316406 16.804688 C 53.320312 16.625 53.328125 16.449219 53.332031 16.269531 C 53.785156 16.128906 54.195312 16.046875 54.671875 16.015625 C 54.78125 16.007812 54.890625 16.003906 55.003906 15.996094 C 55.085938 15.992188 55.167969 15.984375 55.253906 15.980469 C 55.261719 15.90625 55.273438 15.832031 55.28125 15.753906 C 55.382812 15.015625 55.496094 14.28125 55.625 13.546875 C 55.648438 13.414062 55.648438 13.414062 55.667969 13.28125 C 55.753906 12.8125 55.8125 12.496094 56.214844 12.203125 C 56.789062 11.914062 57.496094 12.105469 58.136719 12.105469 Z M 58.136719 12.105469 "/>
<path style=" stroke:none;fill-rule:nonzero;fill:#FFFFFF;fill-opacity:1;" d="M 109.425781 16.773438 C 109.632812 16.957031 109.832031 17.140625 110.027344 17.335938 C 109.972656 17.738281 109.742188 18.011719 109.503906 18.324219 C 109.464844 18.375 109.425781 18.429688 109.386719 18.484375 C 109.09375 18.875 109.09375 18.875 108.875 18.984375 C 108.375 19.035156 108.09375 18.902344 107.667969 18.648438 C 106.847656 18.167969 105.976562 18.042969 105.039062 18.277344 C 104.3125 18.550781 103.875 18.980469 103.492188 19.660156 C 102.925781 21.242188 102.925781 22.902344 103.613281 24.441406 C 103.941406 25.058594 104.375 25.441406 105.03125 25.664062 C 106.117188 25.875 106.992188 25.683594 107.914062 25.085938 C 108.015625 25.007812 108.117188 24.933594 108.21875 24.855469 C 108.488281 24.699219 108.488281 24.699219 108.785156 24.691406 C 109.144531 24.824219 109.296875 24.980469 109.546875 25.277344 C 109.601562 25.339844 109.652344 25.40625 109.707031 25.46875 C 110.125 25.988281 110.125 25.988281 110.117188 26.246094 C 109.738281 27.074219 108.707031 27.5625 107.914062 27.894531 C 106.28125 28.5 104.484375 28.464844 102.90625 27.734375 C 101.4375 26.949219 100.617188 25.667969 100.132812 24.105469 C 99.621094 22.089844 99.84375 19.882812 100.886719 18.089844 C 101.691406 16.804688 102.933594 16.074219 104.371094 15.710938 C 106.089844 15.382812 108.027344 15.664062 109.425781 16.773438 Z M 109.425781 16.773438 "/>
<path style=" stroke:none;fill-rule:nonzero;fill:rgb(99.215686%,83.137256%,0.392157%);fill-opacity:1;" d="M 71.554688 2.402344 C 71.621094 2.402344 71.691406 2.402344 71.761719 2.402344 C 75.671875 2.414062 79.355469 3.746094 82.351562 6.296875 C 82.21875 6.601562 82.0625 6.804688 81.824219 7.039062 C 81.761719 7.101562 81.695312 7.167969 81.632812 7.234375 C 81.53125 7.332031 81.53125 7.332031 81.425781 7.433594 C 81.359375 7.5 81.292969 7.570312 81.222656 7.636719 C 81.054688 7.804688 80.886719 7.96875 80.71875 8.136719 C 80.335938 7.921875 79.976562 7.707031 79.625 7.441406 C 76.636719 5.316406 72.773438 4.585938 69.183594 5.140625 C 66.984375 5.546875 64.808594 6.386719 63.042969 7.789062 C 62.855469 7.933594 62.671875 8.03125 62.460938 8.136719 C 62.1875 7.867188 61.914062 7.601562 61.644531 7.332031 C 61.566406 7.253906 61.488281 7.179688 61.40625 7.101562 C 61.335938 7.027344 61.261719 6.953125 61.183594 6.878906 C 61.082031 6.777344 61.082031 6.777344 60.976562 6.671875 C 60.828125 6.488281 60.828125 6.488281 60.828125 6.199219 C 60.953125 6.074219 60.953125 6.074219 61.128906 5.945312 C 61.195312 5.898438 61.261719 5.851562 61.328125 5.804688 C 61.4375 5.730469 61.4375 5.730469 61.546875 5.652344 C 61.621094 5.601562 61.695312 5.550781 61.773438 5.496094 C 62.488281 5.003906 63.226562 4.566406 64 4.164062 C 64.058594 4.132812 64.117188 4.101562 64.175781 4.070312 C 66.472656 2.882812 68.988281 2.398438 71.554688 2.402344 Z M 71.554688 2.402344 "/>
<path style=" stroke:none;fill-rule:nonzero;fill:#FFFFFF;fill-opacity:1;" d="M 52.273438 15.980469 C 52.234375 16.582031 52.148438 17.171875 52.039062 17.765625 C 52.023438 17.867188 52.023438 17.867188 52.003906 17.972656 C 51.945312 18.300781 51.886719 18.507812 51.699219 18.789062 C 51.480469 18.816406 51.480469 18.816406 51.207031 18.800781 C 51.109375 18.796875 51.011719 18.792969 50.910156 18.792969 C 50.703125 18.78125 50.496094 18.773438 50.285156 18.761719 C 49.550781 18.738281 49.03125 18.832031 48.429688 19.273438 C 47.847656 19.832031 47.597656 20.375 47.566406 21.171875 C 47.558594 21.492188 47.5625 21.816406 47.566406 22.136719 C 47.566406 22.308594 47.566406 22.480469 47.5625 22.65625 C 47.558594 23.105469 47.5625 23.554688 47.566406 24.003906 C 47.566406 24.464844 47.566406 24.925781 47.5625 25.386719 C 47.558594 26.285156 47.5625 27.1875 47.566406 28.085938 C 46.550781 28.085938 45.535156 28.085938 44.492188 28.085938 C 44.492188 24.027344 44.492188 19.96875 44.492188 15.785156 C 46.507812 15.785156 46.507812 15.785156 46.988281 15.980469 C 47.226562 16.300781 47.242188 16.683594 47.289062 17.070312 C 47.304688 17.191406 47.324219 17.316406 47.339844 17.441406 C 47.351562 17.535156 47.363281 17.628906 47.375 17.722656 C 47.414062 17.671875 47.453125 17.617188 47.492188 17.558594 C 48.742188 15.867188 50.265625 15.101562 52.273438 15.980469 Z M 52.273438 15.980469 "/>
<path style=" stroke:none;fill-rule:nonzero;fill:rgb(99.215686%,83.137256%,0.392157%);fill-opacity:1;" d="M 71.332031 6.476562 C 74.082031 6.398438 77.3125 7.316406 79.375 9.199219 C 79.289062 9.714844 78.929688 9.988281 78.574219 10.34375 C 78.507812 10.414062 78.445312 10.480469 78.378906 10.550781 C 78.3125 10.617188 78.25 10.679688 78.183594 10.746094 C 78.128906 10.804688 78.070312 10.863281 78.011719 10.925781 C 77.835938 11.042969 77.835938 11.042969 77.640625 11.019531 C 77.351562 10.902344 77.09375 10.742188 76.828125 10.582031 C 74.441406 9.179688 71.519531 8.746094 68.832031 9.453125 C 67.824219 9.75 66.777344 10.183594 65.941406 10.832031 C 65.632812 11.042969 65.632812 11.042969 65.441406 11.023438 C 65.054688 10.863281 64.789062 10.53125 64.496094 10.234375 C 64.429688 10.171875 64.359375 10.105469 64.292969 10.039062 C 64.226562 9.972656 64.164062 9.910156 64.097656 9.84375 C 64.011719 9.757812 64.011719 9.757812 63.921875 9.667969 C 63.804688 9.492188 63.804688 9.492188 63.824219 9.285156 C 64.238281 8.320312 66.144531 7.691406 67.054688 7.3125 C 68.421875 6.773438 69.871094 6.554688 71.332031 6.476562 Z M 71.332031 6.476562 "/>
<path style=" stroke:none;fill-rule:nonzero;fill:#FFFFFF;fill-opacity:1;" d="M 95.132812 15.785156 C 96.117188 15.785156 97.097656 15.785156 98.113281 15.785156 C 98.113281 19.847656 98.113281 23.90625 98.113281 28.085938 C 97.128906 28.085938 96.144531 28.085938 95.132812 28.085938 C 94.972656 27.925781 95.023438 27.738281 95.023438 27.519531 C 95.023438 27.417969 95.023438 27.316406 95.023438 27.210938 C 95.023438 27.097656 95.023438 26.984375 95.023438 26.871094 C 95.023438 26.75 95.023438 26.632812 95.023438 26.511719 C 95.023438 26.1875 95.023438 25.863281 95.023438 25.539062 C 95.023438 25.199219 95.023438 24.863281 95.023438 24.523438 C 95.023438 23.953125 95.023438 23.386719 95.023438 22.816406 C 95.023438 22.15625 95.023438 21.5 95.023438 20.839844 C 95.023438 20.273438 95.023438 19.710938 95.023438 19.144531 C 95.023438 18.808594 95.023438 18.472656 95.023438 18.132812 C 95.023438 17.757812 95.023438 17.378906 95.023438 17.003906 C 95.023438 16.890625 95.023438 16.777344 95.023438 16.664062 C 95.023438 16.5625 95.023438 16.460938 95.023438 16.355469 C 95.023438 16.265625 95.023438 16.175781 95.023438 16.085938 C 95.035156 15.882812 95.035156 15.882812 95.132812 15.785156 Z M 95.132812 15.785156 "/>
<path style=" stroke:none;fill-rule:nonzero;fill:rgb(99.215686%,83.137256%,0.392157%);fill-opacity:1;" d="M 72.796875 15.8125 C 72.941406 15.894531 73.082031 15.984375 73.222656 16.078125 C 73.3125 16.136719 73.402344 16.191406 73.492188 16.253906 C 74.078125 16.84375 74.371094 17.539062 74.414062 18.371094 C 74.367188 19.957031 73.28125 21.511719 72.480469 22.820312 C 72.4375 22.890625 72.394531 22.960938 72.351562 23.035156 C 72.148438 23.351562 72.039062 23.507812 71.683594 23.660156 C 71.371094 23.628906 71.246094 23.5625 71.042969 23.320312 C 70.769531 22.945312 70.535156 22.546875 70.304688 22.144531 C 70.25 22.046875 70.195312 21.953125 70.136719 21.855469 C 68.523438 19.039062 68.523438 19.039062 68.871094 17.640625 C 69.203125 16.652344 69.726562 16.164062 70.628906 15.691406 C 71.324219 15.457031 72.136719 15.484375 72.796875 15.8125 Z M 70.4375 17.722656 C 70.253906 18.023438 70.246094 18.183594 70.246094 18.535156 C 70.367188 18.976562 70.578125 19.261719 70.917969 19.5625 C 71.273438 19.683594 71.601562 19.710938 71.972656 19.660156 C 72.433594 19.417969 72.742188 19.160156 72.917969 18.664062 C 72.953125 18.160156 72.828125 17.820312 72.503906 17.445312 C 72.121094 17.117188 71.851562 17.097656 71.359375 17.101562 C 70.941406 17.171875 70.699219 17.398438 70.4375 17.722656 Z M 70.4375 17.722656 "/>
<path style=" stroke:none;fill-rule:nonzero;fill:rgb(99.215686%,83.137256%,0.392157%);fill-opacity:1;" d="M 76.492188 12.105469 C 76.433594 12.460938 76.300781 12.621094 76.046875 12.871094 C 75.980469 12.9375 75.910156 13.007812 75.839844 13.078125 C 75.765625 13.148438 75.695312 13.21875 75.621094 13.292969 C 75.546875 13.363281 75.472656 13.4375 75.398438 13.511719 C 75.21875 13.691406 75.039062 13.867188 74.855469 14.042969 C 74.507812 13.929688 74.167969 13.804688 73.828125 13.65625 C 72.460938 13.105469 70.972656 13.132812 69.570312 13.558594 C 69.285156 13.683594 69.011719 13.816406 68.734375 13.964844 C 68.515625 14.042969 68.515625 14.042969 68.332031 13.972656 C 67.964844 13.75 67.683594 13.433594 67.386719 13.128906 C 67.320312 13.0625 67.25 12.996094 67.183594 12.929688 C 67.121094 12.867188 67.054688 12.800781 66.992188 12.738281 C 66.933594 12.679688 66.875 12.621094 66.816406 12.558594 C 66.6875 12.398438 66.6875 12.398438 66.6875 12.105469 C 69.945312 10.222656 73.207031 10.214844 76.492188 12.105469 Z M 76.492188 12.105469 "/>
<path style=" stroke:none;fill-rule:nonzero;fill:rgb(69.803923%,69.803923%,69.803923%);fill-opacity:1;" d="M 106.910156 31.773438 C 107.535156 32.148438 108.027344 32.625 108.296875 33.316406 C 108.535156 34.300781 108.480469 35.308594 107.957031 36.179688 C 107.820312 36.390625 107.675781 36.597656 107.527344 36.804688 C 107.605469 36.882812 107.679688 36.960938 107.757812 37.042969 C 107.855469 37.148438 107.953125 37.253906 108.050781 37.359375 C 108.101562 37.414062 108.152344 37.464844 108.203125 37.519531 C 108.453125 37.792969 108.613281 37.988281 108.683594 38.351562 C 107.601562 38.441406 107.601562 38.441406 107.210938 38.238281 C 106.972656 38.03125 106.796875 37.832031 106.636719 37.558594 C 106.480469 37.355469 106.480469 37.355469 106.203125 37.355469 C 106.101562 37.363281 105.996094 37.371094 105.890625 37.378906 C 105.015625 37.402344 104.34375 37.238281 103.660156 36.675781 C 103.136719 36.171875 102.828125 35.609375 102.789062 34.867188 C 102.773438 34.089844 102.765625 33.410156 103.203125 32.734375 C 103.269531 32.632812 103.332031 32.53125 103.398438 32.425781 C 104.269531 31.476562 105.757812 31.242188 106.910156 31.773438 Z M 104.398438 33.089844 C 103.980469 33.664062 103.917969 34.164062 103.972656 34.867188 C 104.09375 35.46875 104.339844 35.78125 104.839844 36.125 C 105.359375 36.300781 105.894531 36.292969 106.410156 36.109375 C 106.921875 35.75 107.117188 35.378906 107.242188 34.769531 C 107.300781 34.089844 107.152344 33.566406 106.730469 33.039062 C 106.0625 32.507812 105.019531 32.433594 104.398438 33.089844 Z M 104.398438 33.089844 "/>
<path style=" stroke:none;fill-rule:nonzero;fill:rgb(69.803923%,69.803923%,69.803923%);fill-opacity:1;" d="M 70.4375 33.125 C 70.785156 33.15625 71.132812 33.1875 71.492188 33.21875 C 71.589844 33.535156 71.6875 33.851562 71.78125 34.164062 C 71.808594 34.253906 71.835938 34.34375 71.867188 34.433594 C 71.890625 34.519531 71.917969 34.605469 71.945312 34.695312 C 71.96875 34.773438 71.992188 34.855469 72.015625 34.9375 C 72.070312 35.15625 72.070312 35.15625 72.070312 35.542969 C 72.132812 35.542969 72.195312 35.542969 72.261719 35.542969 C 72.285156 35.429688 72.304688 35.316406 72.328125 35.199219 C 72.476562 34.523438 72.710938 33.875 72.933594 33.21875 C 73.253906 33.21875 73.570312 33.21875 73.894531 33.21875 C 74.195312 33.980469 74.425781 34.761719 74.664062 35.542969 C 74.679688 35.480469 74.699219 35.417969 74.714844 35.351562 C 74.789062 35.066406 74.867188 34.777344 74.941406 34.492188 C 74.96875 34.390625 74.992188 34.292969 75.019531 34.1875 C 75.046875 34.09375 75.070312 33.996094 75.097656 33.898438 C 75.121094 33.8125 75.144531 33.722656 75.167969 33.632812 C 75.242188 33.414062 75.242188 33.414062 75.433594 33.21875 C 75.664062 33.179688 75.664062 33.179688 75.925781 33.160156 C 76.011719 33.152344 76.101562 33.144531 76.191406 33.136719 C 76.257812 33.132812 76.324219 33.128906 76.394531 33.125 C 76.335938 33.640625 76.21875 34.109375 76.0625 34.605469 C 76.039062 34.679688 76.015625 34.753906 75.992188 34.832031 C 75.941406 34.984375 75.894531 35.140625 75.84375 35.296875 C 75.769531 35.535156 75.695312 35.773438 75.621094 36.011719 C 75.574219 36.160156 75.527344 36.3125 75.480469 36.464844 C 75.445312 36.570312 75.445312 36.570312 75.410156 36.679688 C 75.253906 37.179688 75.253906 37.179688 75.144531 37.289062 C 74.828125 37.289062 74.511719 37.289062 74.183594 37.289062 C 73.929688 36.519531 73.675781 35.753906 73.414062 34.964844 C 73.167969 35.691406 73.167969 35.691406 72.917969 36.421875 C 72.886719 36.511719 72.855469 36.601562 72.824219 36.695312 C 72.792969 36.789062 72.761719 36.878906 72.726562 36.976562 C 72.648438 37.191406 72.648438 37.191406 72.550781 37.289062 C 72.390625 37.296875 72.226562 37.296875 72.0625 37.292969 C 71.976562 37.292969 71.886719 37.292969 71.796875 37.292969 C 71.726562 37.289062 71.660156 37.289062 71.589844 37.289062 C 71.410156 36.726562 71.230469 36.164062 71.050781 35.601562 C 70.988281 35.410156 70.929688 35.21875 70.867188 35.027344 C 70.777344 34.753906 70.691406 34.480469 70.605469 34.203125 C 70.578125 34.117188 70.550781 34.03125 70.519531 33.945312 C 70.496094 33.863281 70.46875 33.785156 70.445312 33.703125 C 70.421875 33.632812 70.398438 33.5625 70.375 33.492188 C 70.339844 33.316406 70.339844 33.316406 70.4375 33.125 Z M 70.4375 33.125 "/>
<path style=" stroke:none;fill-rule:nonzero;fill:rgb(69.803923%,69.803923%,69.803923%);fill-opacity:1;" d="M 62.171875 31.574219 C 64.878906 31.574219 64.878906 31.574219 65.675781 32.070312 C 66.050781 32.496094 66.195312 32.902344 66.21875 33.472656 C 66.179688 34.132812 65.980469 34.53125 65.5 34.988281 C 64.8125 35.449219 64.121094 35.367188 63.324219 35.351562 C 63.324219 35.992188 63.324219 36.628906 63.324219 37.289062 C 62.945312 37.289062 62.566406 37.289062 62.171875 37.289062 C 62.171875 35.402344 62.171875 33.515625 62.171875 31.574219 Z M 63.324219 32.640625 C 63.324219 33.214844 63.324219 33.789062 63.324219 34.382812 C 64.144531 34.4375 64.144531 34.4375 64.863281 34.09375 C 65 33.835938 65.058594 33.609375 65.054688 33.316406 C 64.910156 32.980469 64.910156 32.980469 64.671875 32.734375 C 64.367188 32.632812 64.152344 32.628906 63.835938 32.632812 C 63.667969 32.636719 63.5 32.636719 63.324219 32.640625 Z M 63.324219 32.640625 "/>
<path style=" stroke:none;fill-rule:nonzero;fill:rgb(69.803923%,69.803923%,69.803923%);fill-opacity:1;" d="M 90.136719 31.476562 C 90.484375 31.476562 90.832031 31.476562 91.191406 31.476562 C 91.191406 33.394531 91.191406 35.3125 91.191406 37.289062 C 90.90625 37.289062 90.621094 37.289062 90.328125 37.289062 C 90.265625 37.191406 90.203125 37.097656 90.136719 36.996094 C 90.082031 37.027344 90.027344 37.054688 89.972656 37.085938 C 89.425781 37.359375 89.101562 37.445312 88.503906 37.289062 C 88.027344 37.066406 87.796875 36.789062 87.609375 36.308594 C 87.4375 35.597656 87.394531 34.695312 87.703125 34.019531 C 88.003906 33.59375 88.316406 33.328125 88.789062 33.125 C 89.003906 33.097656 89.003906 33.097656 89.222656 33.097656 C 89.296875 33.097656 89.367188 33.097656 89.441406 33.097656 C 89.65625 33.125 89.65625 33.125 90.039062 33.316406 C 90.070312 32.710938 90.101562 32.101562 90.136719 31.476562 Z M 88.84375 34.28125 C 88.589844 34.78125 88.535156 35.28125 88.675781 35.828125 C 88.769531 36.132812 88.769531 36.132812 88.984375 36.320312 C 89.507812 36.382812 89.507812 36.382812 89.964844 36.175781 C 90.214844 35.820312 90.1875 35.519531 90.179688 35.097656 C 90.179688 35.023438 90.179688 34.945312 90.179688 34.867188 C 90.179688 34.625 90.179688 34.625 90.136719 34.285156 C 89.695312 33.988281 89.261719 33.945312 88.84375 34.28125 Z M 88.84375 34.28125 "/>
<path style=" stroke:none;fill-rule:nonzero;fill:rgb(69.803923%,69.803923%,69.803923%);fill-opacity:1;" d="M 93.5 31.476562 C 93.847656 31.476562 94.195312 31.476562 94.554688 31.476562 C 94.589844 32.117188 94.621094 32.753906 94.652344 33.414062 C 94.84375 33.316406 95.03125 33.222656 95.230469 33.125 C 95.671875 33.042969 96.007812 33.082031 96.410156 33.28125 C 96.90625 33.722656 97.128906 34.132812 97.171875 34.785156 C 97.1875 36.214844 97.1875 36.214844 96.703125 36.804688 C 96.316406 37.1875 95.984375 37.382812 95.4375 37.40625 C 95.101562 37.371094 94.855469 37.253906 94.554688 37.09375 C 94.492188 37.160156 94.429688 37.222656 94.363281 37.289062 C 94.078125 37.289062 93.792969 37.289062 93.5 37.289062 C 93.5 35.371094 93.5 33.453125 93.5 31.476562 Z M 94.554688 34.480469 C 94.488281 34.757812 94.492188 35.023438 94.503906 35.308594 C 94.5 35.382812 94.5 35.457031 94.5 35.535156 C 94.503906 35.96875 94.503906 35.96875 94.734375 36.320312 C 95.019531 36.453125 95.207031 36.460938 95.515625 36.417969 C 95.875 36.15625 96.007812 35.878906 96.09375 35.449219 C 96.101562 34.992188 96.082031 34.613281 95.835938 34.226562 C 95.324219 33.917969 94.945312 34.0625 94.554688 34.480469 Z M 94.554688 34.480469 "/>
<path style=" stroke:none;fill-rule:nonzero;fill:rgb(69.803923%,69.803923%,69.803923%);fill-opacity:1;" d="M 118.773438 31.476562 C 119.152344 31.476562 119.53125 31.476562 119.925781 31.476562 C 119.925781 32.53125 119.925781 33.585938 119.925781 34.671875 C 120.375 34.242188 120.375 34.242188 120.601562 33.933594 C 121.121094 33.261719 121.121094 33.261719 121.582031 33.136719 C 121.867188 33.113281 122.140625 33.105469 122.421875 33.125 C 122.378906 33.570312 122.214844 33.773438 121.90625 34.09375 C 121.613281 34.398438 121.378906 34.6875 121.175781 35.058594 C 121.34375 35.3125 121.515625 35.5625 121.683594 35.8125 C 121.734375 35.882812 121.78125 35.953125 121.832031 36.023438 C 121.875 36.09375 121.921875 36.164062 121.972656 36.234375 C 122.015625 36.296875 122.058594 36.359375 122.101562 36.425781 C 122.195312 36.554688 122.289062 36.683594 122.390625 36.808594 C 122.519531 36.996094 122.519531 36.996094 122.519531 37.289062 C 122.125 37.339844 121.761719 37.359375 121.367188 37.289062 C 121.0625 37.046875 120.886719 36.753906 120.695312 36.417969 C 120.605469 36.269531 120.519531 36.125 120.429688 35.980469 C 120.394531 35.917969 120.359375 35.855469 120.324219 35.789062 C 120.210938 35.609375 120.210938 35.609375 119.925781 35.542969 C 119.925781 36.121094 119.925781 36.695312 119.925781 37.289062 C 119.109375 37.296875 119.109375 37.296875 118.867188 37.289062 C 118.773438 37.191406 118.773438 37.191406 118.761719 36.960938 C 118.761719 36.863281 118.761719 36.761719 118.761719 36.65625 C 118.761719 36.542969 118.761719 36.425781 118.761719 36.308594 C 118.761719 36.183594 118.761719 36.058594 118.761719 35.933594 C 118.761719 35.804688 118.761719 35.679688 118.761719 35.546875 C 118.761719 35.210938 118.765625 34.875 118.765625 34.535156 C 118.765625 34.191406 118.765625 33.847656 118.765625 33.503906 C 118.769531 32.828125 118.769531 32.152344 118.773438 31.476562 Z M 118.773438 31.476562 "/>
<path style=" stroke:none;fill-rule:nonzero;fill:#FFFFFF;fill-opacity:1;" d="M 97.632812 10.75 C 98.195312 11.15625 98.425781 11.511719 98.582031 12.183594 C 98.636719 12.789062 98.417969 13.28125 98.101562 13.785156 C 97.660156 14.195312 97.214844 14.394531 96.621094 14.480469 C 96.042969 14.394531 95.527344 14.207031 95.140625 13.753906 C 94.703125 13.113281 94.660156 12.589844 94.75 11.816406 C 94.9375 11.316406 95.261719 10.941406 95.710938 10.652344 C 96.402344 10.347656 96.964844 10.398438 97.632812 10.75 Z M 97.632812 10.75 "/>
<path style=" stroke:none;fill-rule:nonzero;fill:rgb(69.803923%,69.803923%,69.803923%);fill-opacity:1;" d="M 79.5 33.386719 C 79.84375 33.648438 80.007812 33.980469 80.140625 34.382812 C 80.152344 34.546875 80.15625 34.714844 80.152344 34.878906 C 80.15625 35.007812 80.15625 35.007812 80.15625 35.140625 C 80.140625 35.351562 80.140625 35.351562 80.046875 35.449219 C 79.867188 35.457031 79.691406 35.457031 79.511719 35.457031 C 79.402344 35.457031 79.296875 35.457031 79.183594 35.457031 C 79.070312 35.457031 78.957031 35.453125 78.839844 35.453125 C 78.726562 35.453125 78.609375 35.453125 78.492188 35.453125 C 78.210938 35.453125 77.925781 35.449219 77.644531 35.449219 C 77.804688 35.902344 77.804688 35.902344 78.09375 36.269531 C 78.507812 36.359375 78.925781 36.304688 79.300781 36.113281 C 79.46875 36.027344 79.46875 36.027344 79.667969 36.046875 C 79.886719 36.140625 80.003906 36.21875 80.140625 36.417969 C 80.117188 36.65625 80.078125 36.773438 79.90625 36.945312 C 79.292969 37.34375 78.707031 37.453125 77.984375 37.351562 C 77.378906 37.191406 77.019531 36.839844 76.683594 36.320312 C 76.398438 35.640625 76.375 34.890625 76.648438 34.207031 C 76.890625 33.714844 77.199219 33.464844 77.667969 33.191406 C 78.316406 33.027344 78.914062 33.050781 79.5 33.386719 Z M 77.789062 34.273438 C 77.625 34.464844 77.625 34.464844 77.644531 34.671875 C 78.152344 34.671875 78.660156 34.671875 79.179688 34.671875 C 79.054688 34.195312 79.054688 34.195312 78.796875 34.09375 C 78.25 34.03125 78.25 34.03125 77.789062 34.273438 Z M 77.789062 34.273438 "/>
<path style=" stroke:none;fill-rule:nonzero;fill:rgb(69.803923%,69.803923%,69.803923%);fill-opacity:1;" d="M 86.320312 33.269531 C 86.769531 33.53125 86.945312 33.808594 87.15625 34.285156 C 87.15625 34.667969 87.15625 35.054688 87.15625 35.449219 C 86.332031 35.449219 85.507812 35.449219 84.660156 35.449219 C 84.871094 36.078125 84.871094 36.078125 85.109375 36.269531 C 85.523438 36.359375 85.9375 36.304688 86.316406 36.113281 C 86.484375 36.027344 86.484375 36.027344 86.683594 36.046875 C 86.902344 36.140625 87.019531 36.21875 87.15625 36.417969 C 87.15625 36.707031 87.0625 36.800781 86.863281 37.007812 C 86.214844 37.425781 85.585938 37.4375 84.851562 37.289062 C 84.289062 37.085938 83.992188 36.75 83.6875 36.242188 C 83.457031 35.671875 83.417969 34.917969 83.621094 34.335938 C 84.167969 33.261719 85.167969 32.777344 86.320312 33.269531 Z M 84.796875 34.328125 C 84.652344 34.542969 84.652344 34.542969 84.660156 34.671875 C 85.164062 34.671875 85.671875 34.671875 86.195312 34.671875 C 86.054688 34.230469 86.054688 34.230469 85.90625 34.09375 C 85.449219 34.027344 85.140625 33.996094 84.796875 34.328125 Z M 84.796875 34.328125 "/>
<path style=" stroke:none;fill-rule:nonzero;fill:rgb(69.803923%,69.803923%,69.803923%);fill-opacity:1;" d="M 69.257812 33.261719 C 69.757812 33.523438 70.058594 33.84375 70.246094 34.382812 C 70.359375 35.070312 70.394531 35.878906 70.035156 36.496094 C 69.636719 36.996094 69.246094 37.269531 68.609375 37.386719 C 67.992188 37.386719 67.398438 37.320312 66.9375 36.863281 C 66.472656 36.324219 66.367188 35.933594 66.363281 35.222656 C 66.363281 35.152344 66.359375 35.082031 66.359375 35.007812 C 66.355469 34.464844 66.472656 34.148438 66.785156 33.703125 C 66.980469 33.535156 66.980469 33.535156 67.175781 33.425781 C 67.238281 33.386719 67.304688 33.351562 67.371094 33.3125 C 67.96875 33.011719 68.640625 33.03125 69.257812 33.261719 Z M 67.554688 34.480469 C 67.390625 34.96875 67.394531 35.4375 67.578125 35.921875 C 67.71875 36.21875 67.71875 36.21875 67.914062 36.367188 C 68.238281 36.441406 68.484375 36.402344 68.804688 36.320312 C 69.121094 36 69.203125 35.660156 69.210938 35.21875 C 69.207031 34.71875 69.054688 34.445312 68.707031 34.09375 C 68.183594 34.03125 67.921875 34.097656 67.554688 34.480469 Z M 67.554688 34.480469 "/>
<path style=" stroke:none;fill-rule:nonzero;fill:rgb(69.803923%,69.803923%,69.803923%);fill-opacity:1;" d="M 108.875 33.21875 C 109.253906 33.21875 109.636719 33.21875 110.027344 33.21875 C 110.027344 33.308594 110.03125 33.394531 110.03125 33.484375 C 110.039062 33.804688 110.042969 34.128906 110.050781 34.449219 C 110.054688 34.589844 110.058594 34.730469 110.0625 34.871094 C 110.0625 35.070312 110.070312 35.269531 110.074219 35.472656 C 110.078125 35.59375 110.078125 35.710938 110.082031 35.835938 C 110.09375 35.933594 110.109375 36.027344 110.125 36.125 C 110.394531 36.351562 110.394531 36.351562 110.707031 36.289062 C 110.980469 36.234375 110.980469 36.234375 111.179688 36.125 C 111.210938 35.167969 111.242188 34.207031 111.277344 33.21875 C 111.65625 33.21875 112.039062 33.21875 112.429688 33.21875 C 112.429688 34.5625 112.429688 35.90625 112.429688 37.289062 C 112.144531 37.289062 111.859375 37.289062 111.566406 37.289062 C 111.5 37.191406 111.4375 37.097656 111.371094 36.996094 C 111.3125 37.042969 111.25 37.089844 111.1875 37.136719 C 110.738281 37.367188 110.304688 37.460938 109.8125 37.324219 C 109.457031 37.167969 109.285156 37.042969 109.074219 36.707031 C 108.910156 36.242188 108.863281 35.871094 108.863281 35.375 C 108.863281 35.25 108.867188 35.125 108.867188 34.996094 C 108.867188 34.863281 108.867188 34.734375 108.867188 34.601562 C 108.867188 34.46875 108.867188 34.332031 108.871094 34.199219 C 108.871094 33.875 108.871094 33.546875 108.875 33.21875 Z M 108.875 33.21875 "/>
<path style=" stroke:none;fill-rule:nonzero;fill:rgb(69.803923%,69.803923%,69.803923%);fill-opacity:1;" d="M 97.152344 33.125 C 97.53125 33.15625 97.910156 33.1875 98.304688 33.21875 C 98.363281 33.367188 98.425781 33.511719 98.488281 33.660156 C 98.570312 33.851562 98.648438 34.042969 98.730469 34.230469 C 98.789062 34.375 98.789062 34.375 98.851562 34.523438 C 98.890625 34.613281 98.929688 34.707031 98.96875 34.800781 C 99.007812 34.882812 99.042969 34.96875 99.078125 35.054688 C 99.152344 35.25 99.152344 35.25 99.265625 35.351562 C 99.289062 35.289062 99.308594 35.230469 99.332031 35.164062 C 99.4375 34.890625 99.539062 34.617188 99.644531 34.339844 C 99.695312 34.195312 99.695312 34.195312 99.75 34.046875 C 99.785156 33.957031 99.820312 33.867188 99.855469 33.773438 C 99.886719 33.6875 99.917969 33.601562 99.953125 33.515625 C 100.035156 33.316406 100.035156 33.316406 100.128906 33.21875 C 100.308594 33.199219 100.484375 33.179688 100.664062 33.164062 C 100.808594 33.152344 100.808594 33.152344 100.957031 33.140625 C 101.035156 33.136719 101.109375 33.128906 101.1875 33.125 C 101.140625 33.785156 100.886719 34.320312 100.617188 34.914062 C 100.519531 35.128906 100.425781 35.34375 100.328125 35.558594 C 100.28125 35.667969 100.230469 35.777344 100.179688 35.890625 C 99.902344 36.515625 99.636719 37.144531 99.371094 37.773438 C 99.332031 37.859375 99.292969 37.949219 99.253906 38.039062 C 99.222656 38.117188 99.1875 38.195312 99.15625 38.273438 C 99.074219 38.449219 99.074219 38.449219 98.976562 38.546875 C 98.816406 38.554688 98.652344 38.554688 98.488281 38.554688 C 98.402344 38.550781 98.3125 38.550781 98.222656 38.550781 C 98.152344 38.550781 98.085938 38.546875 98.015625 38.546875 C 97.984375 38.484375 97.953125 38.417969 97.917969 38.351562 C 98.007812 38.191406 98.09375 38.03125 98.183594 37.871094 C 98.453125 37.378906 98.664062 36.941406 98.511719 36.375 C 98.351562 35.925781 98.132812 35.507812 97.914062 35.085938 C 97.804688 34.863281 97.699219 34.644531 97.589844 34.421875 C 97.523438 34.289062 97.457031 34.152344 97.386719 34.015625 C 97.21875 33.683594 97.152344 33.503906 97.152344 33.125 Z M 97.152344 33.125 "/>
<path style=" stroke:none;fill-rule:nonzero;fill:rgb(69.803923%,69.803923%,69.803923%);fill-opacity:1;" d="M 118.042969 33.398438 C 118.195312 33.511719 118.195312 33.511719 118.386719 33.800781 C 118.195312 34.089844 118.195312 34.089844 118.003906 34.382812 C 117.546875 34.296875 117.546875 34.296875 117.332031 34.1875 C 116.84375 34.140625 116.84375 34.140625 116.429688 34.363281 C 116.148438 34.746094 116.148438 35.078125 116.175781 35.542969 C 116.234375 35.832031 116.300781 35.964844 116.464844 36.222656 C 116.726562 36.332031 116.953125 36.351562 117.234375 36.320312 C 117.496094 36.179688 117.496094 36.179688 117.714844 36.027344 C 117.964844 36.042969 118.074219 36.105469 118.273438 36.253906 C 118.386719 36.417969 118.386719 36.417969 118.386719 36.605469 C 118.1875 37.023438 117.875 37.167969 117.449219 37.320312 C 116.875 37.441406 116.378906 37.394531 115.859375 37.117188 C 115.347656 36.6875 115.054688 36.269531 114.992188 35.59375 C 114.976562 34.25 114.976562 34.25 115.410156 33.703125 C 116.136719 32.972656 117.164062 32.925781 118.042969 33.398438 Z M 118.042969 33.398438 "/>
<path style=" stroke:none;fill-rule:nonzero;fill:rgb(70.19608%,70.19608%,70.19608%);fill-opacity:1;" d="M 83.121094 33.125 C 83.183594 33.15625 83.246094 33.1875 83.3125 33.21875 C 83.28125 33.570312 83.25 33.921875 83.21875 34.285156 C 83.066406 34.300781 82.910156 34.3125 82.753906 34.328125 C 82.46875 34.355469 82.242188 34.386719 81.96875 34.480469 C 81.964844 34.5625 81.964844 34.644531 81.960938 34.726562 C 81.953125 35.027344 81.941406 35.332031 81.933594 35.632812 C 81.929688 35.761719 81.925781 35.894531 81.921875 36.023438 C 81.914062 36.214844 81.910156 36.402344 81.902344 36.589844 C 81.898438 36.757812 81.898438 36.757812 81.890625 36.929688 C 81.871094 37.191406 81.871094 37.191406 81.777344 37.289062 C 81.617188 37.296875 81.457031 37.300781 81.296875 37.300781 C 81.164062 37.300781 81.164062 37.300781 81.03125 37.300781 C 80.816406 37.289062 80.816406 37.289062 80.71875 37.191406 C 80.710938 36.898438 80.707031 36.605469 80.710938 36.3125 C 80.710938 36.226562 80.710938 36.136719 80.710938 36.046875 C 80.710938 35.765625 80.710938 35.480469 80.710938 35.199219 C 80.714844 35.007812 80.714844 34.816406 80.714844 34.628906 C 80.714844 34.160156 80.714844 33.6875 80.71875 33.21875 C 81.035156 33.21875 81.351562 33.21875 81.679688 33.21875 C 81.679688 33.347656 81.679688 33.476562 81.679688 33.609375 C 81.726562 33.574219 81.773438 33.539062 81.824219 33.5 C 82.269531 33.195312 82.5625 33.054688 83.121094 33.125 Z M 83.121094 33.125 "/>
<path style=" stroke:none;fill-rule:nonzero;fill:rgb(69.803923%,69.803923%,69.803923%);fill-opacity:1;" d="M 113.292969 33.21875 C 113.644531 33.21875 113.992188 33.21875 114.351562 33.21875 C 114.351562 34.5625 114.351562 35.90625 114.351562 37.289062 C 114.003906 37.289062 113.652344 37.289062 113.292969 37.289062 C 113.292969 35.945312 113.292969 34.601562 113.292969 33.21875 Z M 113.292969 33.21875 "/>
<path style=" stroke:none;fill-rule:nonzero;fill:rgb(69.803923%,69.803923%,69.803923%);fill-opacity:1;" d="M 114.253906 31.574219 C 114.449219 31.765625 114.449219 31.765625 114.472656 31.96875 C 114.472656 32.046875 114.472656 32.125 114.472656 32.203125 C 114.472656 32.28125 114.472656 32.355469 114.472656 32.4375 C 114.449219 32.640625 114.449219 32.640625 114.253906 32.832031 C 113.59375 32.886719 113.59375 32.886719 113.292969 32.734375 C 113.136719 32.417969 113.136719 32.113281 113.199219 31.765625 C 113.492188 31.375 113.816406 31.46875 114.253906 31.574219 Z M 114.253906 31.574219 "/>
<path style=" stroke:none;fill-rule:nonzero;fill:rgb(72.156864%,72.156864%,72.156864%);fill-opacity:1;" d="M 111.566406 36.902344 C 111.785156 36.933594 112.007812 36.964844 112.238281 36.996094 C 112.238281 37.0625 112.238281 37.125 112.238281 37.191406 C 112.015625 37.222656 111.792969 37.253906 111.566406 37.289062 C 111.566406 37.160156 111.566406 37.03125 111.566406 36.902344 Z M 111.566406 36.902344 "/>
</g>
</svg>
