<?xml version="1.0" encoding="UTF-8"?>
<svg xmlns="http://www.w3.org/2000/svg" xmlns:xlink="http://www.w3.org/1999/xlink" width="80px" height="80px" viewBox="0 0 100 100" version="1.1">
<g id="surface1">
<path style=" stroke:none;fill-rule:nonzero;fill:#FFFFFF;fill-opacity:1;" d="M 1.800781 25.300781 C 1.648438 26.601562 1.5 28.851562 1.5 30.300781 C 1.5 32.949219 1.550781 33 2.949219 33 C 4.25 33 4.398438 32.800781 4.75 30.75 C 4.898438 29.5 5.601562 27.898438 6.199219 27.148438 C 7.300781 25.898438 7.648438 25.800781 11.300781 25.800781 L 15.25 25.75 L 15.398438 42.898438 L 15.5 60.050781 L 14.300781 61.25 C 13.351562 62.148438 12.5 62.5 11 62.5 C 9.199219 62.5 9 62.601562 9 63.75 L 9 65 L 27.5 65 L 27.5 63.75 C 27.5 62.648438 27.300781 62.5 25.550781 62.5 C 24.398438 62.5 23.148438 62.101562 22.449219 61.550781 L 21.25 60.601562 L 21.25 25.75 L 23.851562 25.601562 C 27.898438 25.351562 30.25 26.199219 31.199219 28.199219 C 31.648438 29.148438 32 30.601562 32 31.449219 C 32 32.851562 32.148438 33 33.5 33 L 35 33 L 35 23 L 2.148438 23 Z M 1.800781 25.300781 "/>
<path style=" stroke:none;fill-rule:nonzero;fill:#FFFFFF;fill-opacity:1;" d="M 37.5 24.25 C 37.5 25.351562 37.699219 25.5 39.25 25.5 C 40.351562 25.5 41.398438 25.898438 42 26.5 C 42.949219 27.449219 43 28.148438 43 41.148438 C 43 55.75 43.25 57.851562 45.5 61.050781 C 47.199219 63.351562 51.25 65.050781 55.949219 65.351562 C 63.300781 65.851562 68.601562 63.550781 70.75 58.851562 C 71.949219 56.300781 72 56.050781 72 42.199219 C 72 28.75 72.050781 28.101562 73.050781 26.800781 C 73.800781 25.851562 74.550781 25.5 75.800781 25.5 C 77.300781 25.5 77.5 25.351562 77.5 24.25 L 77.5 23 L 63 23 L 63 24.25 C 63 25.351562 63.199219 25.5 64.898438 25.5 C 66.25 25.5 67.148438 25.851562 67.800781 26.550781 C 68.648438 27.5 68.75 28.648438 68.898438 39.050781 C 69.101562 51.25 68.601562 56.398438 67.101562 58.5 C 64.601562 61.898438 57.898438 63.101562 53.5 60.851562 C 48.851562 58.5 48.300781 56.101562 48.601562 38.351562 C 48.75 27.550781 48.75 27.398438 49.949219 26.449219 C 50.601562 25.949219 51.851562 25.5 52.800781 25.5 C 54.300781 25.5 54.5 25.351562 54.5 24.25 L 54.5 23 L 37.5 23 Z M 37.5 24.25 "/>
<path style=" stroke:none;fill-rule:nonzero;fill:#FFFFFF;fill-opacity:1;" d="M 81 24.25 C 81 25.351562 81.199219 25.5 82.898438 25.5 C 86.648438 25.5 86.5 24.648438 86.5 48.800781 C 86.5 68.75 86.398438 70.398438 85.550781 72.351562 C 84.398438 74.800781 82.800781 76 80 76.351562 C 78.25 76.601562 78 76.800781 78 77.898438 C 78 79.101562 78.050781 79.148438 81.148438 78.898438 C 86.199219 78.5 89.5 76.300781 91.351562 72.25 C 92.148438 70.449219 92.300781 68.050781 92.5 48.601562 C 92.75 27.851562 92.800781 26.898438 93.699219 26.199219 C 94.25 25.800781 95.449219 25.5 96.351562 25.5 C 97.800781 25.5 98 25.351562 98 24.25 L 98 23 L 81 23 Z M 81 24.25 "/>
</g>
</svg>
